# xmcd
#
# Track frame offsets:
#	150
#	12047
#	22192
#	37845
#	53120
#	68072
#	84750
#	97667
#	109665
#	134665
#	148892
#	159575
#
# Disc length: 2327 seconds
# Revision: 0
# Processed by: cddbd v1.5.2PL0 Copyright (c) Steve Scherf et al.
# Submitted via: dBpowerAMP V12.0
#
DISCID=9209150c
DTITLE=Tammy Rogers and Don Heffington - In the Red
DYEAR=1995
DGENRE=Country
TTITLE0=In the Red
TTITLE1=At the Nest
TTITLE2=Flaco's Farewell
TTITLE3=St. Moritz
TTITLE4=Tate's News
TTITLE5=Rest in the Arms of Angels
TTITLE6=Bagpipes
TTITLE7=Whiplash
TTITLE8=Get Out While You Can
TTITLE9=John's Tune
TTITLE10=Psalms
TTITLE11=Amazing Grace
EXTD=
EXTT0=
EXTT1=
EXTT2=
EXTT3=
EXTT4=
EXTT5=
EXTT6=
EXTT7=
EXTT8=
EXTT9=
EXTT10=
EXTT11=
PLAYORDER=
